{
  "accessors": [
    {
      "bufferView": 2,
      "componentType": 5126,
      "count": 464,
      "max": [
        -12.543231010437012,
        261.87173461914062,
        6.6953763961791992
      ],
      "min": [
        -42.543231964111328,
        111.87174987792969,
        1.6953692436218262
      ],
      "type": "VEC3"
    },
    {
      "bufferView": 2,
      "byteOffset": 5568,
      "componentType": 5126,
      "count": 464,
      "max": [
        1,
        1,
        1
      ],
      "min": [
        -1,
        -1,
        -1
      ],
      "type": "VEC3"
    },
    {
      "bufferView": 3,
      "componentType": 5126,
      "count": 464,
      "max": [
        0.6521151065826416,
        1,
        0.99201828241348267,
        1
      ],
      "min": [
        -1,
        -1,
        -0.99201816320419312,
        1
      ],
      "type": "VEC4"
    },
    {
      "bufferView": 1,
      "componentType": 5126,
      "count": 464,
      "max": [
        0.97623544931411743,
        0.97476112842559814
      ],
      "min": [
        0.021494179964065552,
        0.024380490183830261
      ],
      "type": "VEC2"
    },
    {
      "bufferView": 0,
      "componentType": 5125,
      "count": 1230,
      "max": [
        463
      ],
      "min": [
        0
      ],
      "type": "SCALAR"
    },
    {
      "bufferView": 2,
      "byteOffset": 11136,
      "componentType": 5126,
      "count": 20,
      "max": [
        -19.746585845947266,
        249.82667541503906,
        6.6372394561767578
      ],
      "min": [
        -35.341880798339844,
        123.91680908203125,
        4.0793313980102539
      ],
      "type": "VEC3"
    },
    {
      "bufferView": 2,
      "byteOffset": 11376,
      "componentType": 5126,
      "count": 20,
      "max": [
        0.92387968301773071,
        -1.4508325651974019e-09,
        1
      ],
      "min": [
        -0.92387998104095459,
        -2.8462925349970192e-09,
        0.38268238306045532
      ],
      "type": "VEC3"
    },
    {
      "bufferView": 3,
      "byteOffset": 7424,
      "componentType": 5126,
      "count": 20,
      "max": [
        1.1915939467144199e-05,
        -1,
        2.4499979190295562e-05,
        1
      ],
      "min": [
        -3.4534943551989272e-05,
        -1,
        -7.4005165515700355e-06,
        1
      ],
      "type": "VEC4"
    },
    {
      "bufferView": 1,
      "byteOffset": 3712,
      "componentType": 5126,
      "count": 20,
      "max": [
        0.84565174579620361,
        0.50641524791717529
      ],
      "min": [
        0.028972536325454712,
        0.37717923521995544
      ],
      "type": "VEC2"
    },
    {
      "bufferView": 0,
      "byteOffset": 4920,
      "componentType": 5125,
      "count": 48,
      "max": [
        19
      ],
      "min": [
        0
      ],
      "type": "SCALAR"
    }
  ],
  "asset": {
    "extras": {
      "author": "inuhitman (https://sketchfab.com/inuhitman)",
      "license": "CC-BY-NC-4.0 (http://creativecommons.org/licenses/by-nc/4.0/)",
      "source": "https://sketchfab.com/models/97461e7908fa4053b3478dc8e7c542dd",
      "title": "SciFi Light 04"
    },
    "generator": "Sketchfab-3.19.6",
    "version": "2.0"
  },
  "bufferViews": [
    {
      "buffer": 0,
      "byteLength": 5112,
      "byteOffset": 0,
      "name": "floatBufferViews",
      "target": 34963
    },
    {
      "buffer": 0,
      "byteLength": 3872,
      "byteOffset": 5112,
      "byteStride": 8,
      "name": "floatBufferViews",
      "target": 34962
    },
    {
      "buffer": 0,
      "byteLength": 11616,
      "byteOffset": 8984,
      "byteStride": 12,
      "name": "floatBufferViews",
      "target": 34962
    },
    {
      "buffer": 0,
      "byteLength": 7744,
      "byteOffset": 20600,
      "byteStride": 16,
      "name": "floatBufferViews",
      "target": 34962
    }
  ],
  "buffers": [
    {
      "byteLength": 28344,
      "uri": "scene.bin"
    }
  ],
  "images": [
    {
      "uri": "textures/Material_39_baseColor.png"
    },
    {
      "uri": "textures/Material_39_metallicRoughness.png"
    },
    {
      "uri": "textures/Material_39_normal.png"
    },
    {
      "uri": "textures/Material_38_emissive.png"
    }
  ],
  "materials": [
    {
      "doubleSided": true,
      "name": "Material_39",
      "normalTexture": {
        "index": 2,
        "scale": 1,
        "texCoord": 0
      },
      "pbrMetallicRoughness": {
        "baseColorFactor": [
          1,
          1,
          1,
          1
        ],
        "baseColorTexture": {
          "index": 0,
          "texCoord": 0
        },
        "metallicFactor": 1,
        "metallicRoughnessTexture": {
          "index": 1,
          "texCoord": 0
        },
        "roughnessFactor": 1
      }
    },
    {
      "doubleSided": true,
      "emissiveFactor": [
        1,
        1,
        1
      ],
      "emissiveTexture": {
        "index": 3,
        "texCoord": 0
      },
      "name": "Material_38",
      "pbrMetallicRoughness": {
        "baseColorFactor": [
          1,
          1,
          1,
          1
        ],
        "metallicFactor": 0,
        "roughnessFactor": 0.59999999999999998
      }
    }
  ],
  "meshes": [
    {
      "name": "Light_04_Material #39_0",
      "primitives": [
        {
          "attributes": {
            "NORMAL": 1,
            "POSITION": 0,
            "TANGENT": 2,
            "TEXCOORD_0": 3
          },
          "indices": 4,
          "material": 0,
          "mode": 4
        }
      ]
    },
    {
      "name": "Light_04_Material #38_0",
      "primitives": [
        {
          "attributes": {
            "NORMAL": 6,
            "POSITION": 5,
            "TANGENT": 7,
            "TEXCOORD_0": 8
          },
          "indices": 9,
          "material": 1,
          "mode": 4
        }
      ]
    }
  ],
  "nodes": [
    {
      "children": [
        1
      ],
      "name": "RootNode (gltf orientation matrix)",
      "rotation": [
        -0.70710678118654746,
        -0,
        -0,
        0.70710678118654757
      ]
    },
    {
      "children": [
        2
      ],
      "matrix": [
        1,
        0,
        0,
        0,
        0,
        -1,
        0,
        0,
        0,
        0,
        -1,
        0,
        0,
        0.0019345702603459358,
        -4.9999423027038574,
        1
      ],
      "name": "RootNode (model correction matrix)"
    },
    {
      "children": [
        3
      ],
      "matrix": [
        1,
        0,
        0,
        0,
        0,
        -1,
        0,
        0,
        0,
        0,
        -1,
        0,
        0,
        0,
        0,
        1
      ],
      "name": "b11f3a81a7504735882c012d85394242.fbx"
    },
    {
      "children": [
        4
      ],
      "name": "RootNode"
    },
    {
      "children": [
        5
      ],
      "name": "Light_04"
    },
    {
      "children": [
        6,
        7
      ],
      "matrix": [
        1,
        0,
        -0,
        0,
        0,
        1,
        0,
        0,
        0,
        0,
        1,
        0,
        27.5432319641113,
        -186.87173461914099,
        -1.6953716278076201,
        1
      ],
      "name": ""
    },
    {
      "mesh": 0,
      "name": "Light_04_Material #39_0"
    },
    {
      "mesh": 1,
      "name": "Light_04_Material #38_0"
    }
  ],
  "samplers": [
    {
      "magFilter": 9729,
      "minFilter": 9987,
      "wrapS": 10497,
      "wrapT": 10497
    }
  ],
  "scene": 0,
  "scenes": [
    {
      "name": "OSG_Scene",
      "nodes": [
        0
      ]
    }
  ],
  "textures": [
    {
      "sampler": 0,
      "source": 0
    },
    {
      "sampler": 0,
      "source": 1
    },
    {
      "sampler": 0,
      "source": 2
    },
    {
      "sampler": 0,
      "source": 3
    }
  ]
}

