{
  "accessors": [
    {
      "bufferView": 2,
      "componentType": 5126,
      "count": 102,
      "max": [
        787.401611328125,
        1584.64599609375,
        2.8421709430404007e-14
      ],
      "min": [
        -7.1054269340845282e-15,
        -8.5265128291212022e-14,
        0
      ],
      "type": "VEC3"
    },
    {
      "bufferView": 2,
      "byteOffset": 1224,
      "componentType": 5126,
      "count": 102,
      "max": [
        -3.7349798695170166e-17,
        -1.3847210249290822e-18,
        1
      ],
      "min": [
        -3.7349798695170166e-17,
        -1.3847210249290822e-18,
        1
      ],
      "type": "VEC3"
    },
    {
      "bufferView": 3,
      "componentType": 5126,
      "count": 102,
      "max": [
        1,
        0.0012945153284817934,
        3.7351565552958579e-17,
        1
      ],
      "min": [
        0.99999922513961792,
        -0.00011944542347919196,
        3.7349633259047655e-17,
        1
      ],
      "type": "VEC4"
    },
    {
      "bufferView": 1,
      "componentType": 5126,
      "count": 102,
      "max": [
        20,
        40.25
      ],
      "min": [
        -1.8047790564151481e-16,
        -2.1657340736047897e-15
      ],
      "type": "VEC2"
    },
    {
      "bufferView": 0,
      "componentType": 5125,
      "count": 252,
      "max": [
        101
      ],
      "min": [
        0
      ],
      "type": "SCALAR"
    },
    {
      "bufferView": 2,
      "byteOffset": 2448,
      "componentType": 5126,
      "count": 6424,
      "max": [
        797.24407958984375,
        1584.64599609375,
        493.25531005859375
      ],
      "min": [
        -9.8425197601318359,
        -1.1368679706403456e-13,
        0
      ],
      "type": "VEC3"
    },
    {
      "bufferView": 2,
      "byteOffset": 79536,
      "componentType": 5126,
      "count": 6424,
      "max": [
        1,
        1,
        1
      ],
      "min": [
        -1,
        -1,
        -1
      ],
      "type": "VEC3"
    },
    {
      "bufferView": 0,
      "byteOffset": 1008,
      "componentType": 5125,
      "count": 15318,
      "max": [
        6423
      ],
      "min": [
        0
      ],
      "type": "SCALAR"
    },
    {
      "bufferView": 2,
      "byteOffset": 156624,
      "componentType": 5126,
      "count": 9997,
      "max": [
        797.24407958984375,
        1594.8819580078125,
        456.52279663085938
      ],
      "min": [
        -10.236220359802246,
        -9.8425197601318359,
        0
      ],
      "type": "VEC3"
    },
    {
      "bufferView": 2,
      "byteOffset": 276588,
      "componentType": 5126,
      "count": 9997,
      "max": [
        1,
        1,
        1
      ],
      "min": [
        -1,
        -1,
        -1
      ],
      "type": "VEC3"
    },
    {
      "bufferView": 0,
      "byteOffset": 62280,
      "componentType": 5125,
      "count": 19824,
      "max": [
        9996
      ],
      "min": [
        0
      ],
      "type": "SCALAR"
    },
    {
      "bufferView": 2,
      "byteOffset": 396552,
      "componentType": 5126,
      "count": 4584,
      "max": [
        797.24407958984375,
        1594.8819580078125,
        493.25531005859375
      ],
      "min": [
        -10.236220359802246,
        -9.8425197601318359,
        0
      ],
      "type": "VEC3"
    },
    {
      "bufferView": 2,
      "byteOffset": 451560,
      "componentType": 5126,
      "count": 4584,
      "max": [
        1,
        1,
        1
      ],
      "min": [
        -1,
        -1,
        -1
      ],
      "type": "VEC3"
    },
    {
      "bufferView": 0,
      "byteOffset": 141576,
      "componentType": 5125,
      "count": 8751,
      "max": [
        4583
      ],
      "min": [
        0
      ],
      "type": "SCALAR"
    },
    {
      "bufferView": 2,
      "byteOffset": 506568,
      "componentType": 5126,
      "count": 450,
      "max": [
        796.85040283203125,
        1574.802978515625,
        342.027587890625
      ],
      "min": [
        -9.8425197601318359,
        -8.5265128291212022e-14,
        66.929130554199219
      ],
      "type": "VEC3"
    },
    {
      "bufferView": 2,
      "byteOffset": 511968,
      "componentType": 5126,
      "count": 450,
      "max": [
        1,
        1,
        1
      ],
      "min": [
        -1,
        -1,
        -1
      ],
      "type": "VEC3"
    },
    {
      "bufferView": 3,
      "byteOffset": 1632,
      "componentType": 5126,
      "count": 450,
      "max": [
        1,
        1,
        4.0359823287872132e-06,
        1
      ],
      "min": [
        -1,
        -1,
        -1.0526252935960656e-06,
        1
      ],
      "type": "VEC4"
    },
    {
      "bufferView": 1,
      "byteOffset": 816,
      "componentType": 5126,
      "count": 450,
      "max": [
        13.333330154418945,
        13.166669845581055
      ],
      "min": [
        -13.333330154418945,
        -7.2191141080782243e-16
      ],
      "type": "VEC2"
    },
    {
      "bufferView": 0,
      "byteOffset": 176580,
      "componentType": 5125,
      "count": 891,
      "max": [
        449
      ],
      "min": [
        0
      ],
      "type": "SCALAR"
    },
    {
      "bufferView": 2,
      "byteOffset": 517368,
      "componentType": 5126,
      "count": 265,
      "max": [
        831.339599609375,
        1624.0159912109375,
        497.61920166015625
      ],
      "min": [
        -43.938011169433594,
        -39.370079040527344,
        1.1102230246251565e-14
      ],
      "type": "VEC3"
    },
    {
      "bufferView": 2,
      "byteOffset": 520548,
      "componentType": 5126,
      "count": 265,
      "max": [
        0.5,
        1,
        0
      ],
      "min": [
        -0.5,
        -1,
        -0.86602538824081421
      ],
      "type": "VEC3"
    },
    {
      "bufferView": 3,
      "byteOffset": 8832,
      "componentType": 5126,
      "count": 265,
      "max": [
        1,
        1,
        1,
        1
      ],
      "min": [
        -1,
        -1,
        -1.5431996871484444e-05,
        1
      ],
      "type": "VEC4"
    },
    {
      "bufferView": 1,
      "byteOffset": 4416,
      "componentType": 5126,
      "count": 265,
      "max": [
        13.75,
        6.3799052238464355
      ],
      "min": [
        -13.75,
        -6.4634461402893066
      ],
      "type": "VEC2"
    },
    {
      "bufferView": 0,
      "byteOffset": 180144,
      "componentType": 5125,
      "count": 591,
      "max": [
        264
      ],
      "min": [
        0
      ],
      "type": "SCALAR"
    },
    {
      "bufferView": 2,
      "byteOffset": 523728,
      "componentType": 5126,
      "count": 176,
      "max": [
        777.55908203125,
        1594.488037109375,
        236.22050476074219
      ],
      "min": [
        9.8425197601318359,
        -9.8425197601318359,
        66.929130554199219
      ],
      "type": "VEC3"
    },
    {
      "bufferView": 2,
      "byteOffset": 525840,
      "componentType": 5126,
      "count": 176,
      "max": [
        1,
        1,
        1
      ],
      "min": [
        -1,
        -1,
        -1
      ],
      "type": "VEC3"
    },
    {
      "bufferView": 3,
      "byteOffset": 13072,
      "componentType": 5126,
      "count": 176,
      "max": [
        1,
        1,
        2.4611064873170108e-05,
        1
      ],
      "min": [
        -1,
        -1,
        -2.010832577070687e-05,
        1
      ],
      "type": "VEC4"
    },
    {
      "bufferView": 1,
      "byteOffset": 6536,
      "componentType": 5126,
      "count": 176,
      "max": [
        13.5,
        13.5
      ],
      "min": [
        -13.5,
        -0.083333328366279602
      ],
      "type": "VEC2"
    },
    {
      "bufferView": 0,
      "byteOffset": 182508,
      "componentType": 5125,
      "count": 384,
      "max": [
        175
      ],
      "min": [
        0
      ],
      "type": "SCALAR"
    },
    {
      "bufferView": 2,
      "byteOffset": 527952,
      "componentType": 5126,
      "count": 166,
      "max": [
        787.401611328125,
        1584.64599609375,
        255.90550231933594
      ],
      "min": [
        -3.957723038183758e-12,
        -8.5265128291212022e-14,
        0
      ],
      "type": "VEC3"
    },
    {
      "bufferView": 2,
      "byteOffset": 529944,
      "componentType": 5126,
      "count": 166,
      "max": [
        1,
        1,
        1
      ],
      "min": [
        -1,
        -1,
        -1
      ],
      "type": "VEC3"
    },
    {
      "bufferView": 0,
      "byteOffset": 184044,
      "componentType": 5125,
      "count": 282,
      "max": [
        165
      ],
      "min": [
        0
      ],
      "type": "SCALAR"
    },
    {
      "bufferView": 2,
      "byteOffset": 531936,
      "componentType": 5126,
      "count": 2520,
      "max": [
        607.77557373046875,
        1402.5589599609375,
        137.79530334472656
      ],
      "min": [
        179.62600708007812,
        182.08659362792969,
        127.95279693603516
      ],
      "type": "VEC3"
    },
    {
      "bufferView": 2,
      "byteOffset": 562176,
      "componentType": 5126,
      "count": 2520,
      "max": [
        1,
        1,
        1
      ],
      "min": [
        -1,
        -1,
        -1
      ],
      "type": "VEC3"
    },
    {
      "bufferView": 0,
      "byteOffset": 185172,
      "componentType": 5125,
      "count": 7434,
      "max": [
        2519
      ],
      "min": [
        0
      ],
      "type": "SCALAR"
    },
    {
      "bufferView": 2,
      "byteOffset": 592416,
      "componentType": 5126,
      "count": 9828,
      "max": [
        797.24407958984375,
        1594.8819580078125,
        236.22050476074219
      ],
      "min": [
        -10.236220359802246,
        -9.8425197601318359,
        137.79530334472656
      ],
      "type": "VEC3"
    },
    {
      "bufferView": 2,
      "byteOffset": 710352,
      "componentType": 5126,
      "count": 9828,
      "max": [
        1,
        1,
        1
      ],
      "min": [
        -1,
        -1,
        -1
      ],
      "type": "VEC3"
    },
    {
      "bufferView": 0,
      "byteOffset": 214908,
      "componentType": 5125,
      "count": 21474,
      "max": [
        9827
      ],
      "min": [
        0
      ],
      "type": "SCALAR"
    },
    {
      "bufferView": 2,
      "byteOffset": 828288,
      "componentType": 5126,
      "count": 156,
      "max": [
        174.68499755859375,
        -9.4488191604614258,
        216.535400390625
      ],
      "min": [
        29.527559280395508,
        -9.8425197601318359,
        137.79530334472656
      ],
      "type": "VEC3"
    },
    {
      "bufferView": 2,
      "byteOffset": 830160,
      "componentType": 5126,
      "count": 156,
      "max": [
        1,
        1,
        1
      ],
      "min": [
        -1,
        -1,
        -1
      ],
      "type": "VEC3"
    },
    {
      "bufferView": 0,
      "byteOffset": 300804,
      "componentType": 5125,
      "count": 486,
      "max": [
        155
      ],
      "min": [
        0
      ],
      "type": "SCALAR"
    },
    {
      "bufferView": 2,
      "byteOffset": 832032,
      "componentType": 5126,
      "count": 74,
      "max": [
        588.090576171875,
        1584.64599609375,
        433.49978637695312
      ],
      "min": [
        199.31100463867188,
        -1.1368679706403456e-13,
        137.79530334472656
      ],
      "type": "VEC3"
    },
    {
      "bufferView": 0,
      "byteOffset": 302748,
      "componentType": 5125,
      "count": 76,
      "max": [
        73
      ],
      "min": [
        0
      ],
      "type": "SCALAR"
    }
  ],
  "asset": {
    "extras": {
      "author": "Aaron Openshaw (https://sketchfab.com/aaronopenshaw)",
      "license": "CC-BY-4.0 (http://creativecommons.org/licenses/by/4.0/)",
      "source": "https://sketchfab.com/models/1e40d71fdf1e4c89a922249dc77eb946",
      "title": "Carpet Tile Template Model (1.0 x 1.0m texture)"
    },
    "generator": "Sketchfab-3.20.7",
    "version": "2.0"
  },
  "bufferViews": [
    {
      "buffer": 0,
      "byteLength": 303052,
      "byteOffset": 0,
      "name": "floatBufferViews",
      "target": 34963
    },
    {
      "buffer": 0,
      "byteLength": 7944,
      "byteOffset": 303052,
      "byteStride": 8,
      "name": "floatBufferViews",
      "target": 34962
    },
    {
      "buffer": 0,
      "byteLength": 832920,
      "byteOffset": 310996,
      "byteStride": 12,
      "name": "floatBufferViews",
      "target": 34962
    },
    {
      "buffer": 0,
      "byteLength": 15888,
      "byteOffset": 1143916,
      "byteStride": 16,
      "name": "floatBufferViews",
      "target": 34962
    }
  ],
  "buffers": [
    {
      "byteLength": 1159804,
      "uri": "scene.bin"
    }
  ],
  "images": [
    {
      "uri": "textures/Long_Walls_baseColor.jpeg"
    },
    {
      "uri": "textures/Walls_baseColor.jpeg"
    },
    {
      "uri": "textures/material_4_baseColor.jpeg"
    },
    {
      "uri": "textures/material_2_baseColor.jpeg"
    }
  ],
  "materials": [
    {
      "doubleSided": false,
      "name": "Structure",
      "pbrMetallicRoughness": {
        "baseColorFactor": [
          0.16121450759035019,
          0.16538395217797669,
          0.15704506300272369,
          1
        ],
        "metallicFactor": 1,
        "roughnessFactor": 0.64560606990000002
      }
    },
    {
      "doubleSided": false,
      "name": "material",
      "pbrMetallicRoughness": {
        "baseColorFactor": [
          1,
          1,
          1,
          1
        ],
        "metallicFactor": 0,
        "roughnessFactor": 0.59999999999999998
      }
    },
    {
      "doubleSided": false,
      "name": "Long_Walls",
      "pbrMetallicRoughness": {
        "baseColorFactor": [
          1,
          1,
          1,
          1
        ],
        "baseColorTexture": {
          "index": 0,
          "texCoord": 0
        },
        "metallicFactor": 0,
        "roughnessFactor": 1
      }
    },
    {
      "doubleSided": false,
      "name": "material_4",
      "pbrMetallicRoughness": {
        "baseColorFactor": [
          1,
          1,
          1,
          1
        ],
        "baseColorTexture": {
          "index": 2,
          "texCoord": 0
        },
        "metallicFactor": 0,
        "roughnessFactor": 0.33045455469999996
      }
    },
    {
      "doubleSided": false,
      "name": "Walls",
      "pbrMetallicRoughness": {
        "baseColorFactor": [
          1,
          1,
          1,
          1
        ],
        "baseColorTexture": {
          "index": 1,
          "texCoord": 0
        },
        "metallicFactor": 0,
        "roughnessFactor": 1
      }
    },
    {
      "doubleSided": false,
      "emissiveFactor": [
        0,
        0,
        0
      ],
      "name": "Wall_Horizon",
      "pbrMetallicRoughness": {
        "baseColorFactor": [
          0.1624734886135368,
          0.1658234002078815,
          0.15242375383050269,
          1
        ],
        "metallicFactor": 0.19681817260000001,
        "roughnessFactor": 1
      }
    },
    {
      "doubleSided": false,
      "emissiveFactor": [
        1,
        1,
        1
      ],
      "name": "Red_Lamp",
      "pbrMetallicRoughness": {
        "baseColorFactor": [
          1,
          0.972549,
          0.972549,
          1
        ],
        "metallicFactor": 0,
        "roughnessFactor": 1
      }
    },
    {
      "doubleSided": false,
      "name": "Grey",
      "pbrMetallicRoughness": {
        "baseColorFactor": [
          1,
          1,
          1,
          1
        ],
        "metallicFactor": 1,
        "roughnessFactor": 0
      }
    },
    {
      "doubleSided": false,
      "name": "material_2",
      "pbrMetallicRoughness": {
        "baseColorFactor": [
          1,
          1,
          1,
          1
        ],
        "baseColorTexture": {
          "index": 3,
          "texCoord": 0
        },
        "metallicFactor": 0,
        "roughnessFactor": 1
      }
    },
    {
      "doubleSided": false,
      "emissiveFactor": [
        0,
        0,
        0
      ],
      "name": "edge_color000255",
      "pbrMetallicRoughness": {
        "baseColorFactor": [
          1,
          1,
          1,
          1
        ],
        "metallicFactor": 0,
        "roughnessFactor": 0.59999999999999998
      }
    }
  ],
  "meshes": [
    {
      "name": "Material2",
      "primitives": [
        {
          "attributes": {
            "NORMAL": 1,
            "POSITION": 0,
            "TANGENT": 2,
            "TEXCOORD_0": 3
          },
          "indices": 4,
          "material": 8,
          "mode": 4
        }
      ]
    },
    {
      "name": "Material2",
      "primitives": [
        {
          "attributes": {
            "NORMAL": 6,
            "POSITION": 5
          },
          "indices": 7,
          "material": 0,
          "mode": 4
        }
      ]
    },
    {
      "name": "Material2",
      "primitives": [
        {
          "attributes": {
            "NORMAL": 9,
            "POSITION": 8
          },
          "indices": 10,
          "material": 1,
          "mode": 4
        }
      ]
    },
    {
      "name": "Material2",
      "primitives": [
        {
          "attributes": {
            "NORMAL": 12,
            "POSITION": 11
          },
          "indices": 13,
          "material": 1,
          "mode": 4
        }
      ]
    },
    {
      "name": "Material2",
      "primitives": [
        {
          "attributes": {
            "NORMAL": 15,
            "POSITION": 14,
            "TANGENT": 16,
            "TEXCOORD_0": 17
          },
          "indices": 18,
          "material": 2,
          "mode": 4
        }
      ]
    },
    {
      "name": "Material2",
      "primitives": [
        {
          "attributes": {
            "NORMAL": 20,
            "POSITION": 19,
            "TANGENT": 21,
            "TEXCOORD_0": 22
          },
          "indices": 23,
          "material": 3,
          "mode": 4
        }
      ]
    },
    {
      "name": "Material2",
      "primitives": [
        {
          "attributes": {
            "NORMAL": 25,
            "POSITION": 24,
            "TANGENT": 26,
            "TEXCOORD_0": 27
          },
          "indices": 28,
          "material": 4,
          "mode": 4
        }
      ]
    },
    {
      "name": "Material2",
      "primitives": [
        {
          "attributes": {
            "NORMAL": 30,
            "POSITION": 29
          },
          "indices": 31,
          "material": 5,
          "mode": 4
        }
      ]
    },
    {
      "name": "Material2",
      "primitives": [
        {
          "attributes": {
            "NORMAL": 33,
            "POSITION": 32
          },
          "indices": 34,
          "material": 6,
          "mode": 4
        }
      ]
    },
    {
      "name": "Material3",
      "primitives": [
        {
          "attributes": {
            "NORMAL": 36,
            "POSITION": 35
          },
          "indices": 37,
          "material": 7,
          "mode": 4
        }
      ]
    },
    {
      "name": "Material3",
      "primitives": [
        {
          "attributes": {
            "NORMAL": 39,
            "POSITION": 38
          },
          "indices": 40,
          "material": 7,
          "mode": 4
        }
      ]
    },
    {
      "name": "Material2",
      "primitives": [
        {
          "attributes": {
            "POSITION": 41
          },
          "indices": 42,
          "material": 9,
          "mode": 1
        }
      ]
    }
  ],
  "nodes": [
    {
      "children": [
        1
      ],
      "name": "RootNode (gltf orientation matrix)",
      "rotation": [
        -0.70710678118654746,
        -0,
        -0,
        0.70710678118654757
      ]
    },
    {
      "children": [
        2
      ],
      "name": "RootNode (model correction matrix)"
    },
    {
      "children": [
        3
      ],
      "name": "Collada visual scene group"
    },
    {
      "children": [
        6,
        7,
        8,
        9,
        10,
        11,
        12,
        13,
        14,
        15,
        16,
        17,
        4
      ],
      "name": "SketchUp"
    },
    {
      "children": [
        5
      ],
      "matrix": [
        0.99665930000000003,
        -0.081671679999999997,
        0,
        0,
        0.012662369999999999,
        0.15452199999999999,
        0.98790820000000001,
        0,
        -0.080684119999999998,
        -0.98460789999999998,
        0.15503990000000001,
        0,
        453.68509999999998,
        854.73860000000002,
        70.183239999999998,
        1
      ],
      "name": "skp_camera_Last_Saved_SketchUp_View"
    },
    {
      "name": "ID1"
    },
    {
      "mesh": 0,
      "name": "Material2"
    },
    {
      "mesh": 1,
      "name": "Material2"
    },
    {
      "mesh": 2,
      "name": "Material2"
    },
    {
      "mesh": 3,
      "name": "Material2"
    },
    {
      "mesh": 4,
      "name": "Material2"
    },
    {
      "mesh": 5,
      "name": "Material2"
    },
    {
      "mesh": 6,
      "name": "Material2"
    },
    {
      "mesh": 7,
      "name": "Material2"
    },
    {
      "mesh": 8,
      "name": "Material2"
    },
    {
      "mesh": 9,
      "name": "Material3"
    },
    {
      "mesh": 10,
      "name": "Material3"
    },
    {
      "mesh": 11,
      "name": "Material2"
    }
  ],
  "samplers": [
    {
      "magFilter": 9729,
      "minFilter": 9987,
      "wrapS": 10497,
      "wrapT": 10497
    }
  ],
  "scene": 0,
  "scenes": [
    {
      "name": "OSG_Scene",
      "nodes": [
        0
      ]
    }
  ],
  "textures": [
    {
      "sampler": 0,
      "source": 0
    },
    {
      "sampler": 0,
      "source": 1
    },
    {
      "sampler": 0,
      "source": 2
    },
    {
      "sampler": 0,
      "source": 3
    }
  ]
}

